<svg class="primary" width="26" height="28" viewBox="0 0 26 28" fill="none" xmlns="http://www.w3.org/2000/svg">
    <path d="M13.9187 27.9647C9.17756 27.9647 4.72442 25.4257 2.30067 21.3359C1.94619 20.7333 1.63159 20.0997 1.37459 19.4527L0.997961 18.5001L1.83985 17.9196C3.10711 17.0467 3.82936 15.7928 3.82936 14.4723C3.82936 13.1519 3.10268 11.8979 1.83985 11.025L0.99353 10.4446L1.37459 9.4919C1.63159 8.84941 1.93733 8.22021 2.29181 7.61759C4.71556 3.52336 9.16869 0.97998 13.9187 0.97998C18.1237 0.97998 22.0141 2.88973 24.5974 6.22626L25.3861 7.24539L18.6421 12.4562L17.8578 11.4415C16.9096 10.2141 15.474 9.50962 13.9276 9.50962C13.2939 9.50962 12.678 9.62926 12.0931 9.85967C11.4639 10.1122 10.8968 10.4844 10.4138 10.9674L8.5971 9.15071C9.32821 8.4196 10.1834 7.85687 11.1405 7.4758C12.0267 7.12132 12.966 6.94408 13.9276 6.94408C15.8418 6.94408 17.6407 7.65304 19.0188 8.92473L21.7217 6.83774C19.6746 4.74188 16.8963 3.55881 13.9231 3.55881C10.077 3.55881 6.47466 5.61922 4.51173 8.93803C4.38323 9.15071 4.26803 9.37226 4.15282 9.59381C5.59732 10.9054 6.40376 12.6423 6.40376 14.4812C6.40376 16.32 5.59289 18.057 4.15282 19.373C4.26803 19.599 4.38766 19.8205 4.51616 20.0376C6.47909 23.3476 10.0815 25.408 13.9231 25.408C16.2981 25.408 18.5579 24.6547 20.4588 23.2368C20.9064 22.9001 21.3317 22.5323 21.7217 22.1335L19.0188 20.0465C17.6407 21.3182 15.8418 22.0271 13.9276 22.0271C11.9159 22.0271 10.0239 21.2429 8.60153 19.8205L10.4182 18.0038C11.3576 18.9432 12.6027 19.4616 13.9276 19.4616C15.474 19.4616 16.9052 18.7571 17.8578 17.5297L18.6421 16.515L25.3861 21.7258L24.5974 22.7405C23.8485 23.7065 22.9756 24.5661 21.9964 25.3016C19.648 27.0563 16.8564 27.9868 13.9231 27.9868L13.9187 27.9647Z"
          fill="#8B00EC"/>
</svg>
